<svg width="40" height="40" viewBox="0 0 40 40" fill="none" xmlns="http://www.w3.org/2000/svg">
<path d="M14.9083 36.6669C12.1335 36.6883 9.64783 34.9543 8.71 32.3427C7.77218 29.731 8.58691 26.8119 10.7417 25.0633C9.21333 23.8264 8.32537 21.9654 8.32537 19.9992C8.32537 18.033 9.21333 16.172 10.7417 14.935C8.58622 13.1871 7.771 10.2677 8.709 7.65593C9.647 5.04416 12.1333 3.31053 14.9083 3.33311H25.0917C27.8667 3.31053 30.353 5.04416 31.291 7.65593C32.229 10.2677 31.4138 13.1871 29.2583 14.935C31.4131 16.6835 32.2278 19.6027 31.29 22.2143C30.3522 24.826 27.8665 26.56 25.0917 26.5383C23.81 26.5399 22.5558 26.1668 21.4833 25.465V30.1317C21.4677 33.75 18.5267 36.6731 14.9083 36.6669ZM14.8717 26.54C12.8976 26.5712 11.3195 28.1913 11.3402 30.1655C11.3609 32.1398 12.9726 33.7264 14.9469 33.7162C16.9212 33.7059 18.5164 32.1027 18.5167 30.1283V26.54H14.87H14.8717ZM25.0933 16.4117C23.114 16.4218 21.5166 18.0328 21.5233 20.0122C21.5301 21.9915 23.1384 23.5916 25.1177 23.5883C27.0971 23.5849 28.7 21.9794 28.7 20C28.6926 18.0135 27.0782 16.408 25.0917 16.4117H25.0933ZM14.91 16.4116C13.628 16.4048 12.4397 17.0824 11.7928 18.1892C11.1459 19.296 11.1386 20.6639 11.7737 21.7776C12.4087 22.8912 13.5897 23.5815 14.8717 23.5883H18.5167V16.4116H14.91ZM21.4833 6.28333V13.4617H25.09C27.0192 13.4707 28.6109 11.954 28.695 10.0267V10.7517V9.87167C28.6867 7.88746 27.0759 6.28333 25.0917 6.28333H21.4833ZM14.9067 6.28333C13.6247 6.28333 12.4401 6.96727 11.7991 8.0775C11.1581 9.18773 11.1581 10.5556 11.7991 11.6658C12.4401 12.7761 13.6247 13.46 14.9067 13.46H18.5167V6.28333H14.9067Z" fill="#2E3A59"/>
</svg>
