<svg width="40" height="40" viewBox="0 0 40 40" fill="none" xmlns="http://www.w3.org/2000/svg">
<path d="M20.0433 3.33334C11.8882 3.33229 4.93636 9.24664 3.63067 17.2966C2.32497 25.3465 7.05099 33.155 14.7883 35.7317C15.6217 35.8817 15.92 35.37 15.92 34.93C15.92 34.535 15.9067 33.4883 15.9017 32.0967C11.2767 33.0967 10.3 29.8667 10.3 29.8667C9.99553 28.8616 9.34096 27.9989 8.455 27.435C6.955 26.4033 8.57 26.4267 8.57 26.4267C9.6378 26.5731 10.5776 27.2058 11.115 28.14C11.5699 28.9671 12.3363 29.5783 13.2438 29.8377C14.1514 30.0971 15.125 29.9834 15.9483 29.5217C16.0257 28.6783 16.4009 27.8901 17.0067 27.2983C13.3167 26.88 9.43667 25.4533 9.43667 19.0817C9.41619 17.4337 10.0282 15.8405 11.1467 14.63C10.6406 13.1955 10.7002 11.6221 11.3133 10.23C11.3133 10.23 12.7083 9.78167 15.8833 11.9317C18.6064 11.185 21.4803 11.185 24.2033 11.9317C27.38 9.78 28.7733 10.23 28.7733 10.23C29.3893 11.6214 29.449 13.196 28.94 14.63C30.0626 15.8404 30.6741 17.4377 30.6467 19.0883C30.6467 25.4767 26.7633 26.88 23.06 27.2917C23.8589 28.1084 24.2686 29.2289 24.185 30.3683C24.185 32.5917 24.165 34.385 24.165 34.93C24.165 35.375 24.4617 35.8917 25.31 35.7283C33.0441 33.1473 37.7651 25.3383 36.4567 17.2905C35.1483 9.24276 28.1968 3.33147 20.0433 3.33334Z" fill="#2E3A59"/>
</svg>
