<svg width="40" height="40" viewBox="0 0 40 40" fill="none" xmlns="http://www.w3.org/2000/svg">
<path d="M18.3594 0.124996C14.1172 0.617184 11.0859 1.78125 7.89063 4.17187C6.9375 4.88281 4.88281 6.9375 4.17188 7.89062C2.41406 10.2422 1.27344 12.6406 0.625 15.3516C0.210938 17.0625 0.117188 17.9062 0.117188 20C0.117188 22.0937 0.210938 22.9375 0.625 24.6484C1.27344 27.3594 2.41406 29.7578 4.17188 32.1094C4.88281 33.0625 6.9375 35.1172 7.89063 35.8281C10.7344 37.9531 13.7109 39.2031 17.1875 39.7422C18.4531 39.9375 21.5469 39.9375 22.8125 39.7422C26.2891 39.2031 29.2656 37.9531 32.1094 35.8281C33.0625 35.1172 35.1172 33.0625 35.8281 32.1094C37.9531 29.2734 39.2031 26.2812 39.7422 22.8125C39.9375 21.5469 39.9375 18.4531 39.7422 17.1875C39.2031 13.7187 37.9531 10.7266 35.8281 7.89062C35.1172 6.9375 33.0625 4.88281 32.1094 4.17187C29.2891 2.0625 26.2813 0.789059 22.8906 0.273434C22.1094 0.148434 19 0.0468712 18.3594 0.124996ZM14.8125 11.2969C17.8984 11.8437 20.5625 14.1875 21.5547 17.2578C21.8594 18.1953 21.9766 18.9531 21.9766 20C21.9766 22.3516 21.1484 24.4219 19.5391 26.125C17.8359 27.9062 15.6172 28.8516 13.125 28.8437C11.2344 28.8437 9.53125 28.2812 8.04688 27.1875C6.10156 25.7422 4.875 23.7422 4.49219 21.4062C3.76563 16.8906 6.625 12.5312 11.0547 11.3984C12.25 11.0937 13.4766 11.0547 14.8125 11.2969ZM28.3906 11.9453C28.9609 12.2266 29.7266 12.9844 30.1406 13.6953C30.7109 14.6484 31.2031 16.0391 31.4688 17.4609C31.6563 18.4609 31.6563 21.5391 31.4688 22.5391C30.9453 25.3125 29.7969 27.3672 28.375 28.0625C27.9297 28.2812 27.7734 28.3203 27.2656 28.3203C26.7578 28.3203 26.6016 28.2812 26.1563 28.0625C24.7422 27.3672 23.5703 25.2891 23.0703 22.5781C22.875 21.5234 22.875 18.4766 23.0703 17.4219C23.2969 16.2031 23.5781 15.3281 24.0703 14.3203C25.1953 12.0312 26.7891 11.1562 28.3906 11.9453ZM34.3984 12.7187C34.8438 13.1797 35.1953 14.4453 35.4453 16.4844C35.6406 18.0781 35.6406 21.9141 35.4453 23.5156C35.1875 25.6016 34.8281 26.8672 34.3672 27.3125C34.1484 27.5234 34.125 27.5312 33.9219 27.4219C33.1016 26.9531 32.5547 24.0078 32.5547 20C32.5547 16.1562 33.0781 13.1562 33.8438 12.625C34.0859 12.4531 34.1563 12.4687 34.3984 12.7187Z" fill="#2E3A59"/>
</svg>
