<svg width="40" height="40" viewBox="0 0 40 40" fill="none" xmlns="http://www.w3.org/2000/svg">
<path d="M33.325 11.1467C34.819 10.2535 35.937 8.84706 36.47 7.19C35.0661 8.02301 33.5301 8.6098 31.9283 8.925C29.7076 6.57588 26.1892 6.00421 23.339 7.52943C20.4888 9.05465 19.0125 12.2992 19.735 15.45C13.9843 15.1613 8.62661 12.4449 4.995 7.97667C3.09973 11.2457 4.06825 15.4246 7.20833 17.5267C6.07284 17.4902 4.96254 17.1827 3.97 16.63C3.97 16.66 3.97 16.69 3.97 16.72C3.97065 20.1253 6.37062 23.0585 9.70833 23.7333C8.6551 24.0199 7.55034 24.0621 6.47833 23.8567C7.417 26.7688 10.1009 28.7638 13.16 28.8233C10.6264 30.8119 7.49745 31.8903 4.27666 31.885C3.70578 31.8858 3.13535 31.853 2.56833 31.7867C5.83898 33.8884 9.64561 35.0039 13.5333 35C18.9421 35.0372 24.14 32.9048 27.9645 29.08C31.789 25.2552 33.9209 20.0571 33.8833 14.6483C33.8833 14.3383 33.8761 14.03 33.8617 13.7233C35.2624 12.711 36.4713 11.4569 37.4317 10.02C36.1267 10.5984 34.7425 10.9782 33.325 11.1467Z" fill="#2E3A59"/>
</svg>
